<?xml version="1.0" standalone="no"?>
<!DOCTYPE svg PUBLIC "-//W3C//DTD SVG 1.1//EN" "http://www.w3.org/Graphics/SVG/1.1/DTD/svg11.dtd" >
<svg xmlns="http://www.w3.org/2000/svg" xmlns:xlink="http://www.w3.org/1999/xlink" version="1.1">
<metadata>
Created by FontForge 20170731 at Fri Jan  1 02:30:17 1904
 By Aleksey,,,
 
</metadata>
<defs>
<font id="VASCA" horiz-adv-x="500" >
  <font-face 
    font-family="VASCA"
    font-weight="400"
    font-stretch="normal"
    units-per-em="1000"
    panose-1="0 0 0 0 0 0 0 0 0 0"
    ascent="800"
    descent="-200"
    x-height="768"
    cap-height="773"
    bbox="-50 -208.216 1256 862"
    underline-thickness="50"
    underline-position="-155"
    unicode-range="U+0020-F002"
  />
<missing-glyph 
 />
    <glyph glyph-name=".notdef" 
 />
    <glyph glyph-name="glyph1" horiz-adv-x="0" 
 />
    <glyph glyph-name="glyph2" 
 />
    <glyph glyph-name="space" unicode=" " 
 />
    <glyph glyph-name="space" unicode="&#xa0;" 
 />
    <glyph glyph-name="exclam" unicode="!" horiz-adv-x="331" 
d="M205 -66q-17 -19 -36.5 -29.5t-39.5 -12.5q-3 -1 -6.5 -1h-6.5q-46 0 -83 35.5t-36 82.5q0 12 2.5 24.5t8.5 25.5q3 6 7.5 12.5t9.5 12.5q17 20 36.5 30.5t39.5 12.5q3 1 6.5 1h6.5q47 0 84 -35.5t36 -83.5q0 -11 -3 -23.5t-9 -25.5q-3 -6 -7.5 -12.5t-9.5 -12.5v-1z
M230 154l-195 5l5 640h260l-70 -645v0z" />
    <glyph glyph-name="quotedbl" unicode="&#x22;" 
 />
    <glyph glyph-name="numbersign" unicode="#" 
 />
    <glyph glyph-name="dollar" unicode="$" 
 />
    <glyph glyph-name="percent" unicode="%" 
 />
    <glyph glyph-name="ampersand" unicode="&#x26;" 
 />
    <glyph glyph-name="quotesingle" unicode="'" 
 />
    <glyph glyph-name="parenleft" unicode="(" horiz-adv-x="360" 
d="M315 820v-175q-76 -49 -116.5 -121.5t-38.5 -153.5q3 -103 39.5 -177.5t120.5 -127.5v-180q-154 65 -234.5 191.5t-75.5 293.5q5 158 83 273t222 177v0z" />
    <glyph glyph-name="parenright" unicode=")" horiz-adv-x="360" 
d="M27 -132v175q76 50 116.5 122t38.5 153q-3 103 -39.5 177.5t-120.5 127.5v180q154 -64 234.5 -191t75.5 -294q-4 -157 -82.5 -272t-222.5 -177v-1z" />
    <glyph glyph-name="asterisk" unicode="*" 
 />
    <glyph glyph-name="plus" unicode="+" 
 />
    <glyph glyph-name="comma" unicode="," horiz-adv-x="197" 
d="M47 170h145l-70 -225h-125l50 225v0z" />
    <glyph glyph-name="hyphen" unicode="-" horiz-adv-x="350" 
d="M0 370h315v-140h-315v140v0z" />
    <glyph glyph-name="period" unicode="." horiz-adv-x="230" 
d="M5 130q12 38 38.5 55.5t56.5 17.5h1.5h1.5q38 -2 70 -28.5t32 -70.5q0 -8 -1 -16.5t-4 -17.5q-12 -38 -38.5 -55t-56.5 -17h-1.5h-1.5q-38 2 -70 28t-32 70q0 8 1 16.5t4 17.5v0z" />
    <glyph glyph-name="slash" unicode="/" horiz-adv-x="438" 
d="M277 735h170l-255 -735h-185l270 735v0z" />
    <glyph glyph-name="zero" unicode="0" horiz-adv-x="714" 
d="M11 300q-10 174 97.5 264.5t238.5 90.5h1.5h1.5q120 0 221 -77.5t110 -237.5q10 -174 -97.5 -264t-238.5 -90h-1.5h-1.5q-120 0 -221 77t-110 237v0zM226 380q-3 -10 -4.5 -20.5t-1.5 -20.5q-1 -58 41.5 -93t93.5 -36h1.5h1.5q39 0 74 22.5t49 72.5q3 11 4.5 21t1.5 20
q1 58 -41.5 93t-93.5 36h-1.5h-1.5q-39 0 -74 -22.5t-49 -72.5v0z" />
    <glyph glyph-name="one" unicode="1" horiz-adv-x="380" 
d="M265 840v-840h-205v610h-110q34 13 59.5 26.5t50.5 29.5q19 12 38.5 25t41.5 29q14 10 26 19t22 19q11 8 20 17.5t18 18.5q9 10 18.5 21.5t20.5 24.5v0z" />
    <glyph glyph-name="two" unicode="2" horiz-adv-x="679" 
d="M621 0h-630q0 24 1.5 44.5t4.5 39.5q3 16 7.5 32t11.5 34q3 8 6 15t6 13q11 20 21 35t22 29q9 10 19 20t21 23l235 260q9 11 13.5 23t4.5 25v3.5v2.5q-3 31 -27 57t-61 29q-34 2 -61.5 -13t-38.5 -47q32 -9 49.5 -33t20.5 -57q1 -4 1 -7.5v-7.5q0 -40 -30.5 -62.5
t-95.5 -22.5q-55 0 -92 42.5t-37 97.5q-1 108 72.5 167t161.5 73q16 3 32.5 4t32.5 1q108 -2 191.5 -46t93.5 -149q2 -13 2 -24v-22q0 -46 -11.5 -80.5t-35.5 -67.5q-6 -9 -13.5 -18t-16.5 -18l-215 -230h185q20 0 36.5 2t32.5 9q6 2 12.5 5.5t13.5 8.5q22 15 38 41t17 59
v-290v0z" />
    <glyph glyph-name="three" unicode="3" horiz-adv-x="686" 
d="M89 580v215h535l-180 -280q91 -19 148.5 -83.5t66.5 -156.5q1 -6 1 -12v-11q1 -117 -97.5 -194t-218.5 -82q-163 -8 -261 78t-93 196q0 8 1.5 16t3.5 17q13 52 55 94.5t99 37.5q10 -1 21.5 -3t23.5 -6q36 -12 66 -42t30 -86v-11t-1 -12q-4 -35 -28 -57t-57 -33
q21 -16 42.5 -24t46.5 -8q6 0 12.5 0.5t13.5 1.5q51 8 88.5 45t37.5 86v1.5v1.5v0.5v1.5v7.5t-1 6.5q-11 64 -49.5 99.5t-83.5 49.5q-19 7 -37.5 9.5t-34.5 2.5q-18 0 -32.5 -3t-22.5 -8l155 230h-120q-12 0 -21 -5.5t-17 -12.5q-2 -1 -3 -2l-2 -2q-4 -4 -8 -7t-9 -6
q-8 -5 -14.5 -9.5t-12.5 -8.5q-4 -3 -7 -5l-6 -4q-7 -6 -14.5 -11.5t-15.5 -11.5v0z" />
    <glyph glyph-name="four" unicode="4" horiz-adv-x="698" 
d="M341 825h215l-330 -455h155v115l185 235v-350h110l-30 -180h-80v-90q0 -17 3 -31t9 -27q2 -5 5.5 -10.5t7.5 -11.5q9 -13 19.5 -22.5t25.5 -16.5l-355 -1q21 8 36.5 18t28.5 27q2 3 4 5.5t4 5.5q10 12 16 24.5t6 29.5v100h-290q-4 0 -8 0.5t-8 0.5q-3 0 -7 0.5t-7 0.5
h-7.5t-7.5 -2q-14 -4 -24 -13t-16 -22v240l340 430v0z" />
    <glyph glyph-name="five" unicode="5" horiz-adv-x="707" 
d="M632 800v-215q-1 21 -10 37t-25 28q-2 1 -4 2.5t-3 2.5q-14 8 -27.5 11.5t-30.5 3.5h-180v-75q124 5 225.5 -53.5t101.5 -221.5v-7.5v-7.5q-1 -7 -1 -14.5t-1 -15.5q-11 -130 -102 -212t-218 -87q-163 -8 -261 78t-94 196q0 8 1.5 16t3.5 17q14 52 56 94.5t99 37.5
q10 -1 21.5 -3t23.5 -6q36 -12 66 -42t30 -86v-11t-1 -12q-4 -35 -28 -57t-57 -33q21 -16 43 -23.5t47 -8.5q6 0 12 0.5t13 1.5q65 8 101 56.5t29 128.5q-7 87 -53 124.5t-100 45.5q-11 2 -21 2.5t-20 0.5q-33 0 -60.5 -6.5t-41.5 -13.5q-1 -1 -2 -1.5t-2 -1.5v326l470 4v0z
" />
    <glyph glyph-name="six" unicode="6" horiz-adv-x="694" 
d="M352 -20q-163 -1 -254.5 105.5t-90.5 304.5q1 152 85.5 271t234.5 144q17 3 33 4t32 1q44 1 83.5 -8.5t76.5 -26.5l-50 -180q-12 8 -24 13.5t-23 9.5q-12 3 -24 5t-24 2q-20 0 -41 -5t-44 -15q-51 -22 -78 -65.5t-27 -99.5q41 44 87.5 62.5t107.5 17.5
q106 -2 181.5 -74.5t73.5 -185.5q-4 -156 -89 -217t-226 -62v-1zM242 235q8 -46 38.5 -68t66.5 -23h2.5h3.5q39 2 72.5 29t33.5 76q0 5 -0.5 10.5t-1.5 10.5q-7 47 -38 68.5t-67 22.5h-2.5h-3.5q-39 -2 -72.5 -29t-33.5 -76q0 -5 0.5 -10.5t1.5 -10.5v0z" />
    <glyph glyph-name="seven" unicode="7" horiz-adv-x="544" 
d="M10 800h510v-150q-21 -24 -38.5 -45t-33.5 -42q-29 -40 -51.5 -82.5t-41.5 -100.5q-16 -49 -28 -91.5t-20 -83.5q-9 -47 -12 -96.5t0 -108.5l-235 5q-1 48 1.5 93t9.5 89q10 54 27.5 109t46.5 114q21 43 38 73.5t32 54.5q10 15 20.5 28t21.5 25q14 16 30.5 32.5
t37.5 36.5h-190q-15 0 -27.5 -5t-23.5 -13l-12 -8t-12 -9q-2 -1 -4 -2.5t-4 -3.5q-10 -8 -19 -17t-17 -19q-2 -2 -3.5 -4t-2.5 -4v225v0z" />
    <glyph glyph-name="eight" unicode="8" horiz-adv-x="664" 
d="M561 635q-1 -59 -33.5 -90t-81.5 -50q83 -27 132 -89.5t53 -150.5q7 -122 -87 -202t-228 -77q-122 3 -221 80t-94 199q5 87 51.5 149.5t128.5 90.5q-46 19 -75.5 52.5t-34.5 82.5q-7 90 58.5 149.5t171.5 60.5q126 1 194 -54t66 -151v0zM286 405q-35 -13 -51.5 -38
t-18.5 -52v-2.5v-2.5q0 -42 29 -77t75 -36q10 0 20 2t21 6q35 13 51.5 38t18.5 52v2.5v2.5q0 42 -28.5 77t-75.5 36q-10 0 -20 -2t-21 -6v0zM306 685q-32 -5 -47.5 -26.5t-15.5 -46.5v-2.5v-2.5q2 -28 21 -50.5t52 -22.5h7.5t7.5 1q32 5 47.5 26.5t15.5 46.5v2.5v2.5
q-2 28 -21 50.5t-52 22.5h-7.5t-7.5 -1v0z" />
    <glyph glyph-name="nine" unicode="9" horiz-adv-x="694" 
d="M309 812q174 3 257 -108t84 -263q0 -22 -1.5 -45.5t-5.5 -46.5q-23 -154 -137 -252.5t-270 -99.5q-34 0 -61.5 2.5t-54.5 9.5q-19 5 -38 12.5t-41 18.5l77 178q26 -18 53 -26.5t55 -8.5q16 0 32 2.5t33 7.5q53 17 86.5 53t45.5 91q-10 -7 -20 -13t-20 -11
q-26 -14 -53 -20t-56 -6q-13 0 -27.5 1.5t-29.5 3.5q-10 2 -19.5 3.5t-19.5 4.5q-68 17 -123 67t-53 165q4 153 99 216t208 64v0zM434 543q1 55 -33.5 82.5t-75.5 27.5q-40 0 -74 -26.5t-35 -80.5q-1 -55 33.5 -82.5t75.5 -27.5t74.5 26.5t34.5 80.5v0z" />
    <glyph glyph-name="colon" unicode=":" 
 />
    <glyph glyph-name="semicolon" unicode=";" 
 />
    <glyph glyph-name="less" unicode="&#x3c;" 
 />
    <glyph glyph-name="equal" unicode="=" 
 />
    <glyph glyph-name="greater" unicode="&#x3e;" 
 />
    <glyph glyph-name="question" unicode="?" horiz-adv-x="590" 
d="M195 65q13 12 26 19.5t26 11.5q6 1 13 2t13 1q47 -1 83 -37t35 -82q0 -20 -8.5 -40t-27.5 -39q-12 -12 -25.5 -19.5t-26.5 -11.5q-6 -1 -12.5 -2t-13.5 -1q-47 1 -83 37t-35 83q0 19 8.5 39t27.5 39v0zM240 490l-165 -100q-37 36 -54.5 77t-17.5 89q0 8 0.5 16.5
t1.5 17.5q11 102 89 154t196 56q113 4 203 -66t82 -179q-4 -54 -32.5 -83.5t-61.5 -53.5q-1 0 -2 -1l-2 -2q-29 -21 -54 -45t-33 -65q-4 -21 -6 -39.5t-2 -36.5v-6.5v-6.5q1 -19 4 -38.5t9 -42.5l-250 -25q-2 20 -3.5 39t-1.5 37q0 23 2 45.5t7 44.5q6 29 16 58t25 61
q12 26 33.5 44t44.5 33l12 8l12 8q27 17 46.5 36.5t19.5 48.5q0 5 -0.5 10.5t-2.5 11.5q-6 26 -24.5 44t-45.5 21h-2.5t-2.5 1h-3h-3q-30 0 -54 -17t-25 -49q0 -33 8 -61.5t37 -43.5v0z" />
    <glyph glyph-name="at" unicode="@" 
 />
    <glyph glyph-name="A" unicode="A" horiz-adv-x="896" 
d="M79 778h693l33 -299q-11 12 -21 22.5t-20 19.5q-7 7 -14.5 14t-15.5 14q-10 8 -20.5 16.5t-22.5 17.5q-13 10 -25 18.5t-23 15.5q-10 7 -20 13t-21 13q-7 4 -14.5 8t-15.5 8q7 -52 16 -95t21 -84q10 -34 23 -68.5t30 -74.5q6 -13 11.5 -26t11.5 -25q22 -49 45.5 -90
t52.5 -80q20 -28 43 -56.5t50 -59.5h-380q5 11 9.5 20.5t7.5 19.5q5 14 9 28.5t7 31.5q4 20 5.5 36.5t1.5 32.5t-2 32.5t-5 35.5l-104 -299l-119 294q-2 -16 -3 -30.5t-1 -28.5v-6v-6q1 -16 3 -32t6 -34q4 -16 7.5 -29t8.5 -26q4 -8 8 -17t9 -19l-360 -4q27 34 49.5 64.5
t41.5 60.5q19 29 36 58.5t34 62.5q9 19 18.5 39t19.5 42q18 41 32.5 76.5t25.5 69.5q14 42 25 85t21 96q-21 -8 -38 -16t-33 -19q-9 -5 -18.5 -11.5t-19.5 -14.5q-8 -6 -15.5 -12.5t-14.5 -12.5q-15 -12 -26.5 -25.5t-23.5 -29.5l-9 -13.5t-10 -15.5v294v0zM421 275l52 109
l-48 138l-52 -148l48 -99v0z" />
    <glyph glyph-name="B" unicode="B" horiz-adv-x="714" 
d="M0 796h378h5.5h4.5q97 -2 181 -42t100 -143q2 -8 2.5 -16.5t0.5 -16.5q-1 -82 -60.5 -137.5t-139.5 -61.5q9 2 18 3t18 1q76 -1 136 -58t60 -135q0 -80 -61 -135t-141 -55h-492l119 184l23 403l-152 209v0zM359 142q6 -2 12 -3.5t13 -1.5h5.5t4.5 1q29 4 53.5 28.5
t24.5 54.5v1.5v1.5v0.5v1.5q-3 29 -28 49t-54 21h-1.5h-1.5q-7 0 -14 -1t-14 -4v-149v0zM359 462q2 0 3 -0.5t3 -0.5h2.5h2.5q35 0 62 28t27 62v7t-1 6q-5 31 -30 50.5t-56 19.5h-3h-3q-2 0 -3.5 -0.5t-3.5 -0.5v-171v0z" />
    <glyph glyph-name="C" unicode="C" horiz-adv-x="748" 
d="M539 830l38 -427l-171 124q-59 1 -103 -41.5t-44 -101.5q0 -52 29 -94t80 -48q5 -1 10.5 -1h10.5q61 0 116.5 36t97.5 79q42 42 67 77.5t25 36.5l19 -508l-128 90q-23 -13 -45 -22.5t-43 -15.5q-24 -7 -48 -10.5t-50 -3.5q-14 0 -29 1t-32 3q-118 15 -203 79t-119 178
q-9 31 -13 61t-4 59q0 65 25 124.5t77 111.5q53 52 111 77.5t124 25.5q23 0 47.5 -3t49.5 -10l105 123v0z" />
    <glyph glyph-name="D" unicode="D" horiz-adv-x="797" 
d="M-10 0l119 142l23 470l-138 161h328q126 0 197 -46.5t128 -116.5q40 -49 67.5 -123t29.5 -153v-4v-4q0 -56 -16.5 -109.5t-54.5 -97.5q-56 -64 -120.5 -91.5t-150.5 -27.5h-412v0zM369 251q3 0 5.5 -0.5t5.5 -0.5q3 -1 5.5 -1h5.5q37 1 67 18.5t49 50.5q8 15 12 30t4 30
q0 32 -14.5 61.5t-39.5 53.5q-26 26 -54 37t-65 11l19 -290v0z" />
    <glyph glyph-name="E" unicode="E" horiz-adv-x="761" 
d="M-15 0l114 166l52 427l-124 180h541l90 -223q-20 8 -36.5 14.5t-32.5 12.5q-19 6 -38.5 11t-43.5 10q-19 4 -35 7l-32 6q-16 2 -33.5 3.5t-37.5 2.5v-171q11 1 20 3l18 4q8 2 16 5t17 6q2 1 4 1.5t4 1.5q13 5 24 10.5t22 11.5q7 5 15 10.5t17 12.5l4 -237q-12 4 -21.5 7
t-19.5 6t-20.5 5.5t-23.5 5.5q-10 2 -19.5 4t-18.5 4t-18 3.5t-20 2.5v-156q43 10 76.5 22.5t65.5 30.5q16 10 32.5 21t34.5 25q10 8 19.5 15.5t18.5 14.5q32 28 55.5 57.5t46.5 68.5q3 5 5.5 10t5.5 10l-33 -432h-711v0z" />
    <glyph glyph-name="F" unicode="F" horiz-adv-x="692" 
d="M-15 0l114 166l52 427l-124 180h589l61 -237q-20 10 -37.5 18t-34.5 15q-22 9 -45.5 16t-52.5 13q-18 4 -33.5 7t-31.5 5q-17 3 -34.5 4.5t-38.5 2.5v-171q11 1 20 3l18 4q8 2 16 5t17 6q2 1 4 1.5t4 1.5q13 5 24 10.5t22 11.5q7 5 15 10.5t17 12.5l4 -237q-12 4 -21.5 7
t-19.5 6t-20.5 5.5t-23.5 5.5q-10 2 -19.5 4t-18.5 4t-18 3.5t-20 2.5v-156l119 -157h-503v0z" />
    <glyph glyph-name="G" unicode="G" horiz-adv-x="747" 
d="M736 -62l-113 133q-23 -16 -45.5 -28.5t-43.5 -20.5q-30 -12 -59.5 -17t-62.5 -5q-14 0 -29 1.5t-31 2.5q-118 14 -203 78.5t-119 178.5q-9 31 -13.5 61t-4.5 59q0 65 25.5 124.5t77.5 111.5q53 52 111 77.5t124 25.5q23 0 47.5 -3t49.5 -10l105 123l38 -427l-171 124
q-59 1 -103 -41.5t-44 -101.5q0 -52 32 -88t81 -54q18 -7 33.5 -9.5t28.5 -2.5q15 0 26.5 2.5t19.5 6.5q7 3 11 5.5t5 2.5l-85 123h279l33 -432v0z" />
    <glyph glyph-name="H" unicode="H" horiz-adv-x="864" 
d="M0 0l123 176v459l-100 143h432l-90 -143l14 -251l143 9l-10 129l-80 90l408 23l-91 -146v-342l119 -147h-379q6 8 10.5 16t8.5 16q8 15 13.5 30t9.5 33q5 19 7 35.5t2 32.5v5.5v5.5q-1 14 -3 28t-6 30l-152 -4q-1 -9 -1.5 -17.5t-0.5 -16.5q0 -6 0.5 -12.5t0.5 -12.5
q1 -14 4 -28.5t7 -31.5q5 -21 12 -38t16 -33q5 -9 11 -18.5t13 -19.5h-441v0z" />
    <glyph glyph-name="I" unicode="I" horiz-adv-x="466" 
d="M389 104l75 -104h-464l119 128v185l-109 105l431 71l-81 -138l29 -247v0zM64 626q2 73 48 109.5t101 37.5h1.5h1.5q59 0 106.5 -39.5t45.5 -116.5q-2 -73 -48 -109.5t-101 -37.5h-1.5h-1.5q-58 0 -106 39.5t-46 116.5v0z" />
    <glyph glyph-name="J" unicode="J" horiz-adv-x="740" 
d="M289 773l469 5l-90 -152l-9 -389q-2 -109 -93 -169t-200 -67q-7 0 -13 -0.5t-12 -0.5q-123 -1 -219.5 68.5t-114.5 192.5q-1 5 -1.5 10t-0.5 10q-1 5 -1 10v10q0 78 43 142.5t126 80.5q5 1 9.5 1.5t9.5 1.5q4 0 9 0.5t9 0.5q60 -1 109.5 -37t54.5 -102q5 -71 -41 -110
t-104 -38h-10.5t-10.5 1q13 -29 38 -45.5t57 -16.5q44 0 69.5 37t29.5 82q1 4 1 9v10l-5 313l-109 142v0z" />
    <glyph glyph-name="K" unicode="K" horiz-adv-x="939" 
d="M0 0l147 161l-4 465l-105 147h437l-100 -133l-5 -237l228 308h109l-266 -393q4 -29 14.5 -44.5t21.5 -24.5q4 -4 8.5 -6.5t8.5 -5.5q8 -5 18.5 -9t21.5 -7q8 -2 16.5 -3t15.5 -1h7t6 1q-20 23 -34 56t-14 70q0 11 1.5 22t4.5 22t7.5 22t10.5 22q27 44 61.5 64.5
t70.5 24.5q4 1 9 1h9q49 0 92.5 -20.5t66.5 -46.5q29 -31 45.5 -76t16.5 -95q0 -7 -0.5 -13.5t-0.5 -12.5q-4 -40 -20 -78t-46 -71q-41 -44 -87.5 -63.5t-102.5 -20.5q-13 0 -25.5 1.5t-26.5 2.5q-85 12 -143 60.5t-85 128.5q-2 -31 2.5 -56t15.5 -49q4 -9 9 -18.5t11 -18.5
l4 -6t4 -5q13 -19 27.5 -32.5t34.5 -25.5q2 -2 5 -3.5t6 -3.5h-508v0z" />
    <glyph glyph-name="L" unicode="L" horiz-adv-x="768" 
d="M80 778l427 -5l-90 -133v-455q28 2 52 6.5t46 12.5q15 5 30.5 12t32.5 16q59 31 96 67t69 94l-19 -441l-151 48h-583l180 194v451l-90 133v0z" />
    <glyph glyph-name="M" unicode="M" horiz-adv-x="1048" 
d="M29 773h350l138 -361l110 318l378 -1l-95 -150l20 -432l118 -151l-450 4l94 142l-14 232l-170 -403l-176 408l-10 -232l90 -147h-412l86 133l42 502l-99 138v0z" />
    <glyph glyph-name="N" unicode="N" horiz-adv-x="903" 
d="M52 773h365l190 -475v309l-84 128h354l-76 -123l10 -612h-304l-185 446l-5 -247l66 -199h-393l133 194l24 470l-95 109v0z" />
    <glyph glyph-name="O" unicode="O" horiz-adv-x="758" 
d="M370 740q153 2 266.5 -103t117.5 -258q4 -144 -87.5 -251.5t-234.5 -127.5q-13 -1 -25.5 -2t-25.5 -1q-146 1 -261 105.5t-120 253.5q-3 155 106.5 268.5t263.5 115.5v0zM351 322q50 -4 87.5 35t35.5 89q-1 43 -29 73.5t-71 35.5h-2.5t-3.5 1h-2.5h-3.5q-46 0 -80.5 -36
t-34.5 -83q0 -45 29.5 -78t74.5 -37v0z" />
    <glyph glyph-name="P" unicode="P" horiz-adv-x="805" 
d="M38 773l436 5q115 1 198.5 -91t82.5 -205q0 -7 -0.5 -14t-0.5 -13l-2 -14t-3 -14q-19 -85 -73.5 -140t-139.5 -74q-18 -4 -35 -6t-33 -2q-12 0 -24 1t-24 4q-18 4 -36 10.5t-37 16.5v-109l99 -128h-446l109 114l19 526l-90 133v0zM347 393q11 -6 22.5 -8.5t22.5 -2.5
q14 0 27.5 4.5t26.5 12.5q18 12 26.5 31t8.5 41q0 4 -0.5 8.5t-1.5 8.5q-3 23 -14 44.5t-28 36.5q-19 16 -39.5 23.5t-46.5 5.5l-4 -205v0z" />
    <glyph glyph-name="Q" unicode="Q" horiz-adv-x="780" 
d="M569 17q11 38 36.5 55.5t54.5 17.5h1.5h1.5q37 -1 68.5 -27.5t31.5 -68.5q0 -7 -1 -14.5t-3 -14.5q-10 -38 -36 -55.5t-55 -17.5h-1.5h-1.5q-37 1 -68.5 27.5t-31.5 69.5q0 7 1 14t3 14v0zM370 740q153 2 266.5 -103t117.5 -258q4 -144 -87.5 -251.5t-234.5 -127.5
q-13 -1 -25.5 -2t-25.5 -1q-146 1 -261 105.5t-120 253.5q-3 155 106.5 268.5t263.5 115.5v0zM351 322q50 -4 87.5 35t35.5 89q-1 43 -29 73.5t-71 35.5h-2.5t-3.5 1h-2.5h-3.5q-46 0 -80.5 -36t-34.5 -83q0 -45 29.5 -78t74.5 -37v0z" />
    <glyph glyph-name="R" unicode="R" horiz-adv-x="1058" 
d="M771 -109q-148 2 -256 94.5t-131 237.5h-37v-95l99 -128h-446l109 114l19 526l-90 133l436 5q113 1 198 -89.5t85 -200.5q0 -16 -2 -31t-6 -30q-23 -88 -86.5 -142t-154.5 -62l4 -10t5 -10q12 -26 26 -43t37 -33q2 -1 4 -2.5t4 -2.5q6 -4 14 -8.5t17 -9.5
q21 -10 47.5 -18.5t56.5 -9.5q-21 26 -32.5 56.5t-11.5 61.5q0 12 2 24.5t6 25.5q3 13 9 25.5t13 24.5q29 47 66 68t76 23h4.5h5.5q48 -1 91 -21t66 -46q29 -31 45 -76t16 -95v-7.5v-6.5q-3 -43 -18.5 -85t-48.5 -76q-50 -54 -108.5 -67t-132.5 -13v-1zM347 393
q11 -6 22.5 -8.5t22.5 -2.5q14 0 27.5 4.5t26.5 12.5q18 12 26.5 31t8.5 41q0 4 -0.5 8.5t-1.5 8.5q-3 23 -14 44.5t-28 36.5q-19 16 -39.5 23.5t-46.5 5.5l-4 -205v0z" />
    <glyph glyph-name="S" unicode="S" horiz-adv-x="716" 
d="M6 0l86 360l100 -141q0 -1 8.5 -4.5t21.5 -7.5q9 -3 20 -6t22 -5q5 -1 10.5 -1.5t10.5 -0.5q16 0 28.5 5.5t17.5 18.5q3 8 4.5 16.5t1.5 15.5q0 28 -16 49t-37 34q-22 14 -41.5 24t-38.5 20q-23 12 -45 25t-43 35l-8.5 8.5t-8.5 9.5q-22 26 -31.5 54t-9.5 58q0 14 2 28.5
t6 29.5q2 7 4 14.5t5 14.5q26 68 83.5 97.5t130.5 36.5q11 1 20.5 1.5t18.5 0.5q39 0 72 -8.5t65 -26.5q9 -6 18.5 -12t18.5 -13l109 52v-318l-113 124q0 1 -6 7t-17 13t-25.5 13.5t-31.5 6.5q-12 0 -24 -4t-24 -14q-7 -6 -10 -16t-4 -21q0 -13 4 -25t10 -17q11 -8 22 -14.5
t22 -11.5q15 -7 30.5 -12.5t30.5 -9.5q7 -3 13.5 -5t13.5 -4q67 -22 111.5 -61.5t65.5 -107.5q7 -22 10.5 -43t3.5 -41q0 -28 -7 -55.5t-23 -56.5q-40 -73 -111 -94t-154 -18q-41 1 -78.5 9t-66.5 18q-32 10 -50.5 19l-18.5 9l-178 -52v0z" />
    <glyph glyph-name="T" unicode="T" horiz-adv-x="782" 
d="M10 448l66 330h503l161 45l42 -379l-147 125h-113l9 -398l114 -171l-476 -1l120 172l15 393h-128l-166 -116v0z" />
    <glyph glyph-name="U" unicode="U" horiz-adv-x="908" 
d="M6 783l483 -1l-105 -132v-351q0 -30 18.5 -54.5t48.5 -26.5q29 -1 52.5 18.5t23.5 47.5v190l-109 109l484 5l-100 -128l-4 -256q-1 -99 -86 -148t-186 -57q-17 -1 -33 -1.5t-32 -0.5h-1.5h-1.5q-121 3 -222.5 68t-106.5 186l-19 399l-104 133v0z" />
    <glyph glyph-name="V" unicode="V" horiz-adv-x="840" 
d="M10 792l375 1l-37 -162l80 -394l119 360l-79 137h356l-86 -132l-212 -652l-273 60l-146 621l-97 161v0z" />
    <glyph glyph-name="W" unicode="W" horiz-adv-x="1170" 
d="M493 706h185l132 -446l40 346l-80 143h391l-103 -154l-82 -595h-300l-100 452l-170 -487l-228 35l-86 621l-83 157h406l-77 -157l25 -344l130 429v0z" />
    <glyph glyph-name="X" unicode="X" horiz-adv-x="913" 
d="M0 768h422l-60 -109l95 -151q31 8 53 37.5t21 64.5v5.5v4.5q-3 32 -21.5 54.5t-48.5 32.5h415l-122 -124q-2 -27 -9 -49t-19 -43q-5 -8 -10.5 -16t-11.5 -16q-1 -2 -2.5 -3.5l-2.5 -2.5q-24 -29 -50.5 -46t-64.5 -28q11 -20 21 -37.5t20 -34.5q19 -30 38.5 -57t41.5 -53
q18 -21 38.5 -42.5t44.5 -45.5q14 -14 26.5 -25.5t24.5 -22.5q5 -4 10.5 -9t11.5 -9q11 -9 23 -18.5t26 -19.5l-473 -5l61 157l-79 116q-34 -23 -52.5 -53.5t-23.5 -71.5q-1 -7 -1.5 -13.5t-0.5 -12.5q0 -35 13 -65t39 -57h-403q10 11 17.5 20t15.5 18l1.5 1.5l1.5 1.5
q8 9 17 19t19 21q8 9 15.5 17.5t15.5 15.5q0 1 0.5 1.5l0.5 0.5q7 8 14 15.5t15 15.5q-2 31 2 57t12 51q6 18 14 37t18 40q15 31 33 50t42 36q5 3 10.5 6.5t11.5 7.5l-124 185q0 1 -12 15t-27 31q-1 1 -1.5 2t-1.5 2q-6 6 -11 12t-10 11q-9 10 -17 18.5t-16 15.5q-2 3 -5 6
t-6 5q-8 8 -16.5 16t-18.5 17v0z" />
    <glyph glyph-name="Y" unicode="Y" horiz-adv-x="835" 
d="M125 430q-30 41 -44 83t-13 86q0 26 4 52t12 54l-59 83h362l-67 -93q-9 -16 -14 -32t-5 -33q0 -5 1 -11t2 -11q2 -11 6.5 -22t11.5 -22t19 -20.5t25 -16.5q18 -9 33 -14t18 -5q7 0 22 5t31 15q18 10 34 26t22 36q2 8 3.5 16.5t1.5 16.5q0 31 -15.5 57.5t-44.5 41.5h350
l-72 -114q0 -4 0.5 -7.5t0.5 -6.5v-7.5v-7.5q0 -59 -21.5 -111t-54.5 -84q-13 -12 -29 -23.5t-33 -21.5q-31 -17 -57.5 -28.5t-30.5 -11.5l11 -199l65 -105h-400l85 95l11 207q-42 14 -71.5 32.5t-56.5 48.5q-11 11 -21.5 24t-21.5 28v0z" />
    <glyph glyph-name="Z" unicode="Z" horiz-adv-x="748" 
d="M95 797q9 -10 19 -18t24 -11q3 -1 6.5 -1.5t7.5 -1.5q21 -4 38.5 -5t18.5 -1l496 6q-12 -10 -22 -19t-19 -19q-11 -10 -20.5 -21t-18.5 -23q-7 -9 -13.5 -18t-13.5 -20q-8 -12 -15 -23t-13 -21q-4 -8 -7.5 -15.5t-7.5 -14.5t-7 -14.5t-7 -15.5l-148 -313q18 -4 34 -7.5
t32 -3.5q14 0 27.5 2.5t27.5 8.5q29 12 49 25t38 30q9 8 18 17t19 20q9 10 17.5 18.5t16.5 17.5q9 11 17.5 21.5t17.5 23.5q3 5 6.5 10t7.5 11l1 -455q0 1 -6 5.5t-15 9.5q-3 2 -5.5 3.5t-5.5 2.5q-4 3 -8 4.5t-7 2.5q-16 5 -31.5 5.5t-33.5 0.5h-4h-4l-602 3
q11 13 20.5 24.5t18.5 22.5q3 4 6.5 8.5t7.5 8.5q8 11 16 22.5t17 24.5q10 14 18.5 26.5t15.5 24.5q3 5 6.5 10.5t6.5 10.5q5 9 10.5 18.5t11.5 20.5l177 324q-13 2 -24.5 2.5t-22.5 0.5h-7.5h-7.5q-16 -1 -33 -5t-38 -12q-27 -10 -51.5 -27.5t-45.5 -35.5q-31 -27 -50 -50
t-19 -24l62 398v0z" />
    <glyph glyph-name="bracketleft" unicode="[" 
 />
    <glyph glyph-name="backslash" unicode="\" 
 />
    <glyph glyph-name="bracketright" unicode="]" 
 />
    <glyph glyph-name="asciicircum" unicode="^" 
 />
    <glyph glyph-name="underscore" unicode="_" 
 />
    <glyph glyph-name="grave" unicode="`" 
 />
    <glyph glyph-name="a" unicode="a" horiz-adv-x="951" 
d="M455 0l-91 225q-6 -11 -11 -21.5t-8 -21.5q-4 -13 -6 -25.5t-2 -26.5q0 -7 0.5 -14.5t1.5 -15.5q3 -25 10.5 -44.5t21.5 -38.5q3 -4 6 -8.5t7 -8.5h-390q24 33 43.5 61.5t37.5 56.5q11 18 21.5 35.5t21.5 36.5q11 21 22.5 43t23.5 47q24 50 43 92.5t35 84.5
q17 44 31 89.5t27 98.5q3 9 5 17.5t4 17.5q-17 -3 -30.5 -7t-26.5 -10q-8 -4 -16 -8.5t-17 -9.5q-41 -25 -66.5 -55t-43.5 -75v285h350h346v-285q-18 45 -43.5 75t-66.5 55q-9 5 -17 9.5t-16 8.5q-13 6 -26.5 10t-30.5 7q2 -9 4.5 -17t4.5 -16q15 -57 31 -105t35 -94
q17 -42 38 -85t47 -93q14 -27 27 -50.5t26 -44.5q10 -17 20 -32.5t21 -31.5q18 -26 37.5 -53t43.5 -58h-410q6 8 11.5 15.5t9.5 14.5q9 16 14.5 32.5t9.5 37.5q2 12 3 23.5t1 21.5q0 6 -0.5 12t-0.5 12q-2 14 -6.5 29t-11.5 32l-105 -230v0zM460 220l75 105l-80 245
l-80 -245l85 -105v0z" />
    <glyph glyph-name="b" unicode="b" horiz-adv-x="820" 
d="M0 800h470q10 0 20 -0.5t20 -1.5q82 -6 151 -44t74 -119q5 -74 -31 -117.5t-79 -65.5q-36 -19 -67.5 -25.5t-40.5 -6.5h-1.5h-0.5q1 0 3 0.5t4 0.5q4 1 9.5 1.5t11.5 0.5q20 0 49.5 -4.5t60.5 -15.5q53 -19 97 -63.5t45 -129.5t-59.5 -147.5t-145.5 -62.5h-590
q6 5 11.5 10.5l10.5 10.5q13 12 23.5 25.5t19.5 30.5q2 2 3 4l2 4q1 1 1.5 2.5t1.5 2.5q4 7 8.5 14t8.5 14q6 12 10.5 24t4.5 28v460q0 17 -3.5 30.5t-9.5 26.5q-3 8 -7.5 16t-9.5 17q-13 24 -27.5 40.5t-35.5 31.5l-6 4l-6 4v0zM335 335v-210q8 -5 17.5 -8t19.5 -4
q3 -1 6.5 -1h6.5h6.5t6.5 1q45 4 83 36t39 76q1 46 -37.5 81.5t-84.5 40.5q-3 1 -6.5 1h-6.5q-13 0 -26 -3t-24 -10v0zM480 585q-1 35 -31 60.5t-66 28.5h-4h-4q-10 0 -20.5 -2t-19.5 -7v-170q8 -4 17.5 -6.5t19.5 -2.5q4 0 7.5 0.5t6.5 0.5q36 5 65.5 32.5t28.5 65.5v0z
" />
    <glyph glyph-name="c" unicode="c" horiz-adv-x="734" 
d="M714 815l-115 -325q-23 50 -66 76t-99 24q-67 -2 -110 -58t-50 -123q0 -5 -0.5 -11t-0.5 -12q0 -13 1.5 -26t4.5 -25q18 -68 64.5 -103.5t97.5 -40.5q6 -1 11.5 -1h11.5q74 2 112 24t68 71l85 -235q-25 -17 -47.5 -30.5t-45.5 -22.5q-34 -15 -69.5 -22.5t-77.5 -7.5
q-24 0 -51 2t-59 7q-168 22 -271.5 153.5t-93.5 300.5q9 146 89.5 258t225.5 132q8 2 16.5 2h15.5q25 0 48 -4.5t45 -10.5q4 -1 7.5 -2t7.5 -2q28 -8 58.5 -14t66.5 -4q30 2 47.5 5.5t32.5 9.5q9 3 18.5 7t21.5 8v0z" />
    <glyph glyph-name="d" unicode="d" horiz-adv-x="825" 
d="M-5 800h435q15 0 30.5 -1.5t30.5 -4.5q113 -22 207.5 -122.5t96.5 -271.5q2 -181 -86 -290.5t-214 -109.5h-500q4 3 6.5 5.5t5.5 4.5q17 15 29 31.5t24 38.5q5 9 9 17l8 16q6 13 9.5 26.5t3.5 30.5v485q0 16 -4 28.5t-10 24.5q-3 6 -7 13t-9 14q-13 22 -28 37t-36 28h-1z
M320 635v-490h95q8 0 27 6.5t41 25.5q27 25 50 76t22 142q-1 90 -41 165t-124 75h-70v0z" />
    <glyph glyph-name="e" unicode="e" horiz-adv-x="758" 
d="M425 315q-12 5 -22.5 7t-21.5 3q-3 1 -6.5 1h-7.5q-11 0 -22.5 -1.5t-24.5 -4.5v-175h190q12 0 33.5 9.5t44.5 25.5q14 8 27.5 18.5t24.5 21.5q6 5 11 10.5t9 10.5q16 17 28 35.5t22 43.5l-10 -320h-705q4 3 6.5 5.5t5.5 4.5q17 15 29 31.5t24 38.5q5 9 9 17l8 16
q6 13 9.5 26.5t3.5 30.5v485q0 16 -4 28.5t-10 24.5q-3 6 -7 13t-9 14q-13 22 -28 37t-36 28h704l-15 -295q-2 4 -4.5 7t-4.5 6q-11 17 -23 29.5t-27 24.5q-3 4 -7.5 7t-8.5 6q-8 6 -17.5 12t-18.5 11q-21 12 -40 19.5t-29 7.5h-185v-180q9 -1 17 -2t15 -1q8 0 15.5 1
t15.5 2q10 3 20.5 6.5t21.5 8.5q33 16 53 38.5t32 56.5v-315q-17 25 -36.5 40t-48.5 25v0z" />
    <glyph glyph-name="f" unicode="f" horiz-adv-x="709" 
d="M410 0h-415q4 3 6.5 5.5t5.5 4.5q17 15 29 31.5t24 38.5q5 9 9 17l8 16q6 13 9.5 26.5t3.5 30.5v485q0 16 -4 28.5t-10 24.5q-3 6 -7 13t-9 14q-13 22 -28 37t-36 28h704l-15 -295q-2 4 -4.5 7t-4.5 6q-11 17 -23 29.5t-27 24.5q-3 4 -7.5 7t-8.5 6q-8 6 -17.5 12
t-18.5 11q-21 12 -40 19.5t-29 7.5h-185v-180q9 -1 17 -2t15 -1q8 0 15.5 1t15.5 2q10 3 20.5 6.5t21.5 8.5q33 16 53 38.5t32 56.5v-315q-17 25 -36.5 40t-48.5 25q-12 5 -22.5 7t-21.5 3q-3 1 -6.5 1h-7.5q-11 0 -22.5 -1.5t-24.5 -4.5v-145q0 -14 1 -26t3 -24
q2 -8 4.5 -17t6.5 -18q13 -31 30 -52t45 -38v0z" />
    <glyph glyph-name="g" unicode="g" horiz-adv-x="819" 
d="M564 295q-3 19 -25 32.5t-47 16.5h-5h-4q-10 0 -20.5 -2t-18.5 -7v95h335v-375h-65q-44 0 -76 -10t-61 -23q-4 -2 -8.5 -3.5t-8.5 -3.5q-37 -15 -81.5 -28.5t-114.5 -10.5q-169 6 -272 145.5t-92 308.5q8 146 88.5 260t225.5 130q10 2 19.5 2h17.5q33 0 59.5 -6t50.5 -13
q1 0 2.5 -0.5t2.5 -0.5q26 -8 52.5 -13.5t60.5 -3.5q30 2 47.5 5.5t32.5 9.5q9 3 18.5 7t21.5 8l-90 -315q-28 45 -69 68.5t-92 23.5q-7 0 -14 -0.5t-15 -1.5q-69 -9 -113 -67t-48 -125v-6.5v-6.5q0 -13 1.5 -25.5t4.5 -24.5q18 -68 64.5 -103.5t97.5 -40.5q6 -1 11.5 -1
h11.5q64 2 90.5 24.5t26.5 58.5q0 5 -0.5 10.5t-1.5 11.5v0z" />
    <glyph glyph-name="h" unicode="h" horiz-adv-x="910" 
d="M435 335h-101v-180v-3.5v-3.5v-21t2 -20q1 -8 3 -15.5t5 -16.5q11 -26 26 -43.5t39 -31.5h-405q4 3 8 6.5t8 7.5q10 9 19 19.5t17 22.5q4 4 7 9l6 10q2 3 3.5 5.5t3.5 4.5q3 5 6 9t5 8q7 11 12 22.5t5 25.5v505q0 17 -4.5 31t-12.5 27q-3 6 -6 11t-7 11q-13 21 -28 34.5
t-37 25.5h400q-19 -9 -31.5 -21t-23.5 -29q-4 -6 -7 -12.5t-5 -12.5q-5 -14 -6.5 -28.5t-1.5 -31.5v-185h110h101v185q0 17 -1.5 31.5t-6.5 28.5q-2 6 -5 12.5t-7 12.5q-10 17 -23 29t-32 21h400q-22 -12 -36.5 -25.5t-28.5 -34.5q-4 -6 -7 -11t-6 -11q-8 -13 -12.5 -27
t-4.5 -31v-505q0 -14 5 -25.5t12 -22.5q2 -4 5 -8t6 -9q2 -2 3.5 -4.5t3.5 -5.5l6 -10t7 -9q8 -12 17 -22.5t19 -19.5q4 -4 8 -7.5t8 -6.5h-405q24 14 39.5 31.5t25.5 43.5q3 9 5 16.5t3 15.5q2 10 2 20v21v3.5v3.5v180h-110v0z" />
    <glyph glyph-name="i" unicode="i" horiz-adv-x="459" 
d="M334 360v-205v-5.5v-5.5v-19t1 -18q1 -8 3 -15.5t6 -16.5q12 -28 31.5 -46t48.5 -29h-420q4 3 8 6.5t8 7.5q10 9 19 19.5t17 22.5q4 4 7 9l6 10q2 3 3.5 5.5t3.5 4.5q3 5 6 9t5 8q7 11 12 22.5t5 25.5v210q0 15 -2.5 27.5t-6.5 23.5q-4 8 -7.5 16.5t-8.5 17.5
q-12 24 -25.5 40.5t-33.5 31.5q-3 2 -5.5 4t-5.5 4h405q-21 -17 -35 -35.5t-25 -44.5q-4 -9 -7.5 -18t-5.5 -17q-4 -12 -5.5 -24t-1.5 -26v0zM75 785q24 38 56 56.5t66 20.5h4.5h4.5q65 0 118.5 -47.5t53.5 -115.5q0 -22 -7 -44t-21 -45q-24 -38 -56 -56.5t-66 -20.5h-4.5
h-4.5q-65 0 -118.5 47.5t-53.5 115.5q0 22 7 44.5t21 44.5v0z" />
    <glyph glyph-name="j" unicode="j" horiz-adv-x="869" 
d="M-32 145l215 245q0 -13 7 -32.5t19 -40.5q17 -28 41 -52.5t53 -34.5q17 -6 33 -8.5t31 -2.5q58 0 99.5 35t41.5 101v295q0 26 -8.5 49t-21.5 36q-7 8 -13.5 15.5t-12.5 14.5q-8 10 -17 18.5t-22 16.5h395q-6 -7 -11 -14t-9 -14q-3 -4 -5.5 -8.5t-5.5 -9.5t-6.5 -11
t-7.5 -13q-1 -3 -2.5 -5.5t-3.5 -6.5q-7 -14 -13 -33t-6 -40v-390q0 -23 -4.5 -49t-14.5 -53q-13 -35 -36.5 -68.5t-59.5 -59.5q-32 -23 -69 -35t-75 -16q-11 -2 -23 -2.5t-23 -0.5q-44 0 -85 8t-70 21q-37 17 -66 33.5t-56 35.5q-19 13 -38 27t-40 29q-9 7 -20.5 11
t-23.5 6q-16 3 -30.5 3h-24.5h-5.5h-4.5h-1z" />
    <glyph glyph-name="k" unicode="k" horiz-adv-x="915" 
d="M525 65q0 1 0.5 2.5t0.5 2.5v2.5v2.5q0 17 -8 31t-20 27q-2 3 -4.5 6t-4.5 5q-2 3 -4.5 5.5t-4.5 5.5l-146 180v-180v-3.5v-3.5v-21t2 -20q1 -8 3 -15.5t5 -16.5q11 -26 26 -43.5t39 -31.5h-405q4 3 8 6.5t8 7.5q10 9 19 19.5t17 22.5q4 4 7 9l6 10q2 3 3.5 5.5t3.5 4.5
q3 5 6 9t5 8q7 11 12 22.5t5 25.5v505q0 17 -4.5 31t-12.5 27q-3 6 -6 11t-7 11q-13 21 -28 34.5t-37 25.5h400q-19 -9 -31.5 -21t-23.5 -29q-4 -6 -7 -12.5t-5 -12.5q-5 -14 -6.5 -28.5t-1.5 -31.5v-185l161 180q12 14 19.5 28.5t7.5 31.5q0 4 -0.5 7.5t-1.5 7.5
q-4 18 -16 31t-29 19h405q-9 -6 -17.5 -12t-16.5 -12q-7 -5 -13 -9.5t-12 -9.5q-9 -8 -17.5 -15.5t-18.5 -16.5q-8 -7 -15 -14l-13 -13l-8 -8t-8 -9q-7 -8 -14.5 -17t-16.5 -19l-190 -225q10 -13 59.5 -70t112.5 -123q11 -12 22 -23.5t22 -22.5q18 -17 35 -34t34 -32
q14 -13 26.5 -24t24.5 -21l3.5 -3.5l3.5 -3.5q12 -10 24.5 -20.5t27.5 -22.5h-445q23 8 37 25t18 40v0z" />
    <glyph glyph-name="l" unicode="l" horiz-adv-x="811" 
d="M765 375l4 -375h-765q4 3 8 6.5t8 7.5q10 9 19 19.5t17 22.5q4 4 7 9l6 10q2 3 3.5 5.5t3.5 4.5q3 5 6 9t5 8q7 11 12 22.5t5 25.5v505q0 17 -4.5 31t-12.5 27q-3 6 -6 11t-7 11q-13 21 -28 34.5t-37 25.5h400q-19 -9 -31.5 -21t-23.5 -29q-4 -6 -7 -12.5t-5 -12.5
q-5 -14 -6.5 -28.5t-1.5 -31.5v-488l221 -1q43 0 75 18.5t60 46.5q9 9 16 17l14 16q18 23 28.5 48t16.5 58v0z" />
    <glyph glyph-name="m" unicode="m" horiz-adv-x="1125" 
d="M444 725l116 -315l90 235q1 2 1.5 4t1.5 4q1 3 2.5 6t2.5 6l4 12t3 13t1.5 13t0.5 12v7.5t-1 7.5q0 7 -1.5 14.5t-4.5 15.5h430q-15 -7 -25.5 -16.5t-19.5 -23.5q-2 -4 -4.5 -7.5t-5.5 -6.5q-4 -7 -7 -14t-3 -17v-525q0 -14 1 -25.5t4 -22.5q2 -8 4.5 -15.5l5.5 -16.5
q8 -19 17 -33t23 -27q2 -3 4.5 -5.5t5.5 -4.5h-370q23 14 37 32t23 43q3 8 5 15.5t3 14.5q1 9 1.5 19t0.5 21v340l-120 -360q-3 -9 -6 -17t-5 -16q-2 -10 -3.5 -20t-0.5 -22q0 -10 2 -17.5t5 -15.5q1 -4 3.5 -8t4.5 -9h-205q2 6 3.5 11t2.5 11q2 7 3 15.5t1 17.5
q0 13 -2 23.5t-6 20.5q-2 6 -4 11.5t-4 11.5q-1 3 -2 6.5t-2 6.5l-121 365v-345v-3.5v-3.5v-21t2 -20q1 -8 3 -15.5t5 -16.5q11 -26 26 -43.5t39 -31.5h-405q4 3 8 6.5t8 7.5q10 9 19 19.5t17 22.5q4 4 7 9l6 10q2 3 3.5 5.5t3.5 4.5q3 5 6 9t5 8q7 11 12 22.5t5 25.5v505
q0 17 -4.5 31t-12.5 27q-3 6 -6 11t-7 11q-13 21 -28 34.5t-37 25.5h440q-1 -2 -2.5 -4.5t-2.5 -5.5q-2 -4 -3 -9t-2 -11v-12t1 -11q0 -4 1 -8t3 -9v0z" />
    <glyph glyph-name="n" unicode="n" horiz-adv-x="922" 
d="M595 320v335q0 12 -1.5 22t-5.5 20q-1 6 -3.5 11.5t-4.5 11.5q-6 14 -13 24.5t-16 19.5q-2 2 -3 3.5t-3 2.5h330l-5.5 -5.5l-4.5 -4.5q-10 -10 -17 -20.5t-13 -24.5q-2 -6 -4.5 -11.5t-3.5 -11.5q-4 -10 -5.5 -20t-1.5 -22v-545q0 -11 3 -20t8 -18q3 -4 6 -8.5t5 -9.5
q1 -1 1.5 -2t1.5 -2q5 -9 10 -16.5t11 -14.5q4 -3 7 -6.5t7 -7.5h-415q2 6 3.5 11t2.5 11q2 7 3 15.5t1 17.5q0 13 -2 23.5t-6 20.5q-2 6 -4 11.5t-4 11.5q-1 3 -2 6.5t-2 6.5l-121 365v-345v-3.5v-3.5v-21t2 -20q1 -8 3 -15.5t5 -16.5q11 -26 26 -43.5t39 -31.5h-405
q4 3 8 6.5t8 7.5q10 9 19 19.5t17 22.5q4 4 7 9l6 10q2 3 3.5 5.5t3.5 4.5q3 5 6 9t5 8q7 11 12 22.5t5 25.5v505q0 17 -4.5 31t-12.5 27q-3 6 -6 11t-7 11q-13 21 -28 34.5t-37 25.5h440q-1 -2 -2.5 -4.5t-2.5 -5.5q-2 -4 -3 -9t-2 -11v-12t1 -11q0 -4 1 -8t3 -9l151 -405
v0z" />
    <glyph glyph-name="o" unicode="o" horiz-adv-x="818" 
d="M360 765q14 2 27.5 2.5t26.5 0.5q186 -1 284.5 -125.5t98.5 -273.5v-1.5v-1.5q0 -136 -86 -251t-266 -134q-13 -2 -26.5 -2.5t-27.5 -0.5q-186 1 -284.5 125t-98.5 273v1.5v1.5q0 136 86 251.5t266 134.5v0zM350 480q-39 -25 -58 -57.5t-21 -67.5v-4.5v-4.5
q-1 -66 47 -120t117 -54q22 0 44.5 7t45.5 21q39 25 58 57.5t21 67.5v4.5v4.5q1 66 -47 120t-117 54q-22 0 -44.5 -7t-45.5 -21v0z" />
    <glyph glyph-name="p" unicode="p" horiz-adv-x="744" 
d="M3 0q6 5 11.5 10.5l10.5 10.5q13 12 23.5 25.5t19.5 30.5q2 2 3 4l2 4q1 1 1.5 2.5t1.5 2.5q4 7 8.5 14t8.5 14q6 12 10.5 24t4.5 28v460q0 17 -3.5 30.5t-9.5 26.5q-3 8 -7.5 16t-9.5 17q-13 24 -27.5 40.5t-35.5 31.5l-6 4l-6 4h470q104 0 178 -79.5t72 -180.5
q-1 -72 -33.5 -116.5t-72.5 -69.5q-36 -22 -67 -30.5t-37 -8.5h-175v-150q0 -13 0.5 -25t1.5 -23q1 -9 3 -18t5 -19q5 -17 12 -31t16 -27q4 -5 8 -10.5t9 -11.5h-390v0zM493 560q-1 36 -34.5 64t-73.5 33q-3 1 -6.5 1h-6.5q-10 0 -20 -1.5t-19 -6.5v-200q10 -4 20.5 -6.5
t20.5 -2.5h4h4q42 3 77 36.5t34 82.5v0z" />
    <glyph glyph-name="q" unicode="q" horiz-adv-x="839" 
d="M669 95q5 -4 9.5 -8t8.5 -8q5 -4 9.5 -7.5t9.5 -6.5q3 -3 6 -5.5t7 -4.5q7 -5 14 -9.5t13 -8.5q5 -3 9.5 -6t8.5 -5q5 -3 10 -5.5t10 -5.5l-120 -105q-15 7 -27.5 13.5t-23.5 13.5q-8 6 -16.5 11.5t-17.5 12.5l-8 6t-7 6q-7 5 -13 10.5t-11 10.5l-8 8l-8 8
q-10 -5 -19.5 -8.5t-18.5 -6.5q-12 -5 -24.5 -8t-27.5 -6t-30 -4t-29 -1q-125 0 -222 86t-129 213q-5 22 -7.5 43.5t-2.5 43.5q0 146 103 266.5t252 131.5q140 11 249.5 -62.5t150.5 -207.5q11 -33 16 -65t5 -63q-1 -74 -31 -141.5t-90 -125.5v0zM549 225q23 24 34.5 52.5
t12.5 59.5q0 9 -1 18t-3 19l-6 18t-7 18q-21 45 -63.5 69.5t-90.5 25.5q-22 0 -44 -6t-42 -19q-37 -23 -57.5 -59.5t-20.5 -77.5q-1 -13 1.5 -26t6.5 -27q17 -51 59.5 -81t94.5 -30h10.5t10.5 1l-40 85l90 45l55 -85v0z" />
    <glyph glyph-name="r" unicode="r" horiz-adv-x="858" 
d="M465 315q5 -28 18 -48t37 -37q6 -4 11 -7t11 -6q13 -6 27 -9t31 -3v4v4q4 42 32.5 77.5t69.5 35.5h3.5h3.5q1 0 3 -0.5t3 -0.5q70 -11 97.5 -50t32.5 -95q1 -4 1 -8.5v-8.5q0 -60 -38.5 -105t-97.5 -58q-16 -3 -31 -4.5t-29 -1.5q-19 0 -36.5 3t-35.5 8q-29 11 -59 30.5
t-64 49.5q-25 22 -45 48.5t-35 54.5q-17 31 -27 60.5t-13 51.5v-135q0 -13 0.5 -25t1.5 -23q1 -9 3 -18t5 -19q5 -17 12 -31t16 -27q4 -5 8 -10.5t9 -11.5h-390q6 5 11.5 10.5l10.5 10.5q13 12 23.5 25.5t19.5 30.5q2 2 3 4l2 4q1 1 1.5 2.5t1.5 2.5q4 7 8.5 14t8.5 14
q6 12 10.5 24t4.5 28v460q0 17 -3.5 30.5t-9.5 26.5q-3 8 -7.5 16t-9.5 17q-13 24 -27.5 40.5t-35.5 31.5l-6 4l-6 4h470q104 0 178 -79.5t72 -180.5q-1 -101 -53 -150.5t-114 -65.5q-23 -6 -45.5 -8t-42.5 -1v0zM490 560q-1 36 -34.5 64t-73.5 33q-3 1 -6.5 1h-6.5
q-10 0 -20 -1.5t-19 -6.5v-200q10 -4 20.5 -6.5t20.5 -2.5h4h4q42 3 77 36.5t34 82.5v0z" />
    <glyph glyph-name="s" unicode="s" horiz-adv-x="690" 
d="M440 525q111 -19 164 -93.5t53 -164.5v-9v-9q0 -5 -0.5 -9.5t-1.5 -9.5q-14 -122 -88 -176t-160 -65q-16 -3 -32.5 -4t-32.5 -1q-42 0 -79 6.5t-63 14.5q-12 4 -22 9t-20 11q-4 2 -8 4.5t-8 4.5q-13 7 -26 12t-28 5h-6t-7 -1q-17 -3 -30.5 -9t-27.5 -15q-1 -2 -3 -3
t-4 -3v340q16 -32 42 -56.5t54 -42.5q25 -16 49 -27.5t40 -18.5q12 -5 24 -9.5t24 -7.5q17 -5 34 -8t32 -3q31 1 53 14t28 44q1 5 1.5 10.5t0.5 9.5q0 37 -30.5 47.5t-74.5 15.5q-19 2 -39 4.5t-40 6.5q-6 1 -11.5 2.5t-11.5 3.5q-12 3 -24.5 8t-24.5 11q-48 24 -87.5 75
t-33.5 146q8 110 89 173t201 62q55 0 85 -6.5t50 -13.5q6 -2 11 -4l10 -4q13 -5 26.5 -8t32.5 -4q14 0 26 1t24 3q10 2 21 5t24 6l-35 -245q-6 8 -17 19.5t-26 22.5q-24 18 -55.5 34t-63.5 23q-2 0 -4 0.5t-4 0.5q-24 3 -44.5 5.5t-37.5 2.5q-36 -1 -57 -13.5t-26 -44.5
q-1 -4 -1 -7.5v-6.5q0 -34 34 -42.5t81 -11.5h4h4q9 0 18 -1t19 -1l18 -2t18 -3v0z" />
    <glyph glyph-name="t" unicode="t" horiz-adv-x="726" 
d="M687 800v-305q-11 24 -23 41.5t-29 33.5q-4 4 -8.5 7.5t-9.5 7.5q-9 7 -18.5 13.5t-19.5 11.5q-20 12 -38.5 18.5t-28.5 6.5h-60v-464q0 -21 3.5 -38.5t10.5 -34.5q3 -7 7 -14t9 -14t9.5 -13.5t9.5 -12.5q8 -12 17 -21t22 -18q1 -2 2.5 -3t3.5 -2h-419q2 1 3.5 2t2.5 2
q23 15 38.5 31t28.5 41q5 9 9 17t7 16q5 14 8 28.5t3 32.5l-2 465h-60q-10 0 -28.5 -6.5t-38.5 -18.5q-10 -5 -19.5 -11.5t-18.5 -13.5q-5 -4 -9.5 -7.5t-8.5 -7.5q-17 -16 -29 -33.5t-22 -41.5l-1 305h697v0z" />
    <glyph glyph-name="u" unicode="u" horiz-adv-x="857" 
d="M424 180q41 0 73 27.5t32 67.5v60v325q0 17 -1.5 31.5t-6.5 28.5q-2 6 -5 12.5t-7 12.5q-10 17 -23 29t-32 21h400q-22 -12 -36.5 -25.5t-28.5 -34.5q-4 -6 -7 -11t-6 -11q-8 -13 -12.5 -27t-4.5 -31v-385q0 -130 -102.5 -212t-232.5 -82t-233 84.5t-103 214.5v380
q0 17 -4.5 31t-12.5 27q-3 6 -6 11t-7 11q-13 21 -28 34.5t-36 25.5h399q-19 -9 -31.5 -21t-23.5 -29q-4 -6 -7 -12.5t-5 -12.5q-5 -14 -6.5 -28.5t-1.5 -31.5v-325v-55q0 -42 32 -71t74 -29v0z" />
    <glyph glyph-name="v" unicode="v" horiz-adv-x="851" 
d="M416 390l95 275q2 8 3.5 14.5t1.5 13.5t-1 13.5t-3 12.5t-5 12.5t-6 13.5q-9 18 -22.5 30.5t-32.5 19.5h400q-7 -7 -13 -14t-11 -13q-3 -3 -5 -5.5t-4 -5.5q-6 -6 -11 -12.5t-11 -14.5q-5 -7 -10 -13l-10 -12q-7 -9 -13.5 -18.5t-11.5 -21.5l-330 -785l-321 775
q-6 16 -14 28t-17 23l-12 14t-12 15q-5 7 -10.5 13t-9.5 12l-6 6l-6 6q-5 5 -10 11t-12 12h399q-19 -7 -32.5 -19t-22.5 -31q-5 -11 -8 -22.5t-3 -22.5q0 -8 1.5 -17t4.5 -18l91 -275v0z" />
    <glyph glyph-name="w" unicode="w" horiz-adv-x="1279" 
d="M506 745h239l-10 -80l91 -275l95 275q2 8 3.5 14.5t1.5 13.5t-1 13.5t-3 12.5t-5 12.5t-6 13.5q-9 18 -22.5 30.5t-32.5 19.5h400q-7 -7 -13 -14t-11 -13q-3 -3 -5 -5.5t-4 -5.5q-6 -6 -11 -12.5t-11 -14.5q-5 -7 -10 -13l-10 -12q-7 -9 -13.5 -18.5t-11.5 -21.5
l-330 -785l-200 485l-205 -485l-321 775q-6 16 -14 28t-17 23l-12 14t-12 15q-5 7 -10.5 13t-9.5 12l-6 6l-6 6q-5 5 -10 11t-12 12h399q-19 -7 -32.5 -19t-22.5 -31q-5 -11 -8 -22.5t-3 -22.5q0 -8 1.5 -17t4.5 -18l91 -275l95 275l-10 80v0z" />
    <glyph glyph-name="x" unicode="x" horiz-adv-x="872" 
d="M298 385l-181 291q-4 6 -7.5 12t-6.5 11q-4 7 -8.5 13.5t-9.5 13.5q-3 3 -6 7t-7 8t-7 7.5t-7 6.5q-12 12 -25.5 21.5t-31.5 18.5h405q-22 -4 -38.5 -16t-25.5 -33l-4 -10l-4 -10q-1 -6 -2 -11t-1 -10q0 -6 1.5 -12t4.5 -12l91 -170l94 170q3 6 4.5 12t1.5 13q0 10 -3 20
t-8 20q-9 20 -24 32.5t-37 16.5h400q-18 -9 -32 -19.5t-27 -23.5q-4 -4 -7.5 -8t-7.5 -8l-8 -10t-7 -10q-3 -4 -5.5 -8t-4.5 -8q-4 -6 -7.5 -12t-7.5 -12l-186 -290l186 -251q3 -5 6.5 -9t6.5 -8q5 -6 9 -11t9 -10q5 -6 11.5 -13t12.5 -14q8 -9 15 -17t14 -15q2 -2 3 -3.5
t3 -2.5q7 -8 14.5 -15.5t15.5 -16.5h-400q20 7 33 19t22 31q3 6 5.5 12.5t4.5 12.5t3 12.5t1 12.5v5.5t-1 4.5q-1 5 -2.5 10.5t-5.5 9.5l-89 120l-96 -120q-3 -4 -5.5 -9.5t-3.5 -10.5q0 -2 -0.5 -4.5t-0.5 -5.5q0 -6 1 -12.5t4 -12.5q2 -6 4.5 -12.5t5.5 -12.5
q9 -19 22.5 -31t32.5 -19h-400q8 9 16 16.5t15 15.5q2 3 5 5.5t5 5.5q6 6 12 13l12 14t12.5 14t11.5 13q5 5 9 10t9 11q3 4 6.5 8t6.5 9l181 250v0z" />
    <glyph glyph-name="y" unicode="y" horiz-adv-x="872" 
d="M611 0h-410q19 7 31.5 16.5t24.5 23.5q1 1 2 2.5t2 2.5q3 5 6.5 9t6.5 8q7 11 12 22.5t5 25.5v299l-186 251q-3 5 -6.5 9t-6.5 8q-5 6 -9 11t-9 10q-5 6 -11.5 13t-12.5 14l-12 14t-12 13q-2 3 -5 5.5t-5 5.5q-7 8 -14.5 15.5t-15.5 16.5h399q-19 -7 -32.5 -19t-22.5 -31
q-3 -6 -5.5 -12.5t-4.5 -12.5t-3 -12.5t-1 -12.5v-5t1 -5q1 -5 3 -10t5 -10l89 -120l96 120q4 5 6 10t3 10q0 2 0.5 5t0.5 5q0 6 -1 12.5t-3 12.5q-3 6 -5.5 12.5t-5.5 12.5q-9 19 -22 31t-33 19h400q-8 -9 -16 -16.5t-15 -15.5q-2 -3 -5 -5.5t-5 -5.5q-6 -6 -12 -13
l-12 -14t-12.5 -14t-11.5 -13q-5 -5 -9 -10t-9 -11q-3 -4 -6.5 -8t-6.5 -9l-181 -250l-3 -300q0 -13 3.5 -23t8.5 -20q3 -5 6.5 -10.5t6.5 -11.5q6 -11 13 -19.5t16 -16.5q2 -2 5 -4.5t6 -4.5v0z" />
    <glyph glyph-name="z" unicode="z" horiz-adv-x="791" 
d="M50 800h660l-350 -625q3 -1 7.5 -2t11.5 -2q14 -2 35 -3.5t45 -1.5q16 0 33 1t35 3q23 4 45.5 10t42.5 15q53 25 86 59t59 86v-340h-765l380 650q-11 2 -24.5 3t-28.5 1q-21 0 -44 -2.5t-46 -8.5l-26 -8t-26 -10q-43 -19 -73 -44.5t-57 -65.5v285v0z" />
    <glyph glyph-name="braceleft" unicode="{" 
 />
    <glyph glyph-name="bar" unicode="|" 
 />
    <glyph glyph-name="braceright" unicode="}" 
 />
    <glyph glyph-name="asciitilde" unicode="~" 
 />
    <glyph glyph-name="exclamdown" unicode="&#xa1;" horiz-adv-x="331" 
d="M75 445l195 -5l-5 -640h-260l70 645v0zM100 665q17 20 36.5 30.5t39.5 12.5q3 1 6.5 1h6.5q47 0 84 -35.5t36 -83.5q0 -12 -3 -24.5t-9 -25.5q-3 -6 -7.5 -12.5t-9.5 -12.5q-17 -20 -36.5 -30.5t-39.5 -12.5q-3 -1 -6.5 -1h-6.5q-46 0 -83.5 35.5t-36.5 83.5q0 12 3 24.5
t9 25.5q3 6 7.5 12.5t9.5 12.5v0z" />
    <glyph glyph-name="cent" unicode="&#xa2;" 
 />
    <glyph glyph-name="sterling" unicode="&#xa3;" 
 />
    <glyph glyph-name="currency" unicode="&#xa4;" 
 />
    <glyph glyph-name="yen" unicode="&#xa5;" 
 />
    <glyph glyph-name="brokenbar" unicode="&#xa6;" 
 />
    <glyph glyph-name="section" unicode="&#xa7;" 
 />
    <glyph glyph-name="dieresis" unicode="&#xa8;" 
 />
    <glyph glyph-name="copyright" unicode="&#xa9;" 
 />
    <glyph glyph-name="ordfeminine" unicode="&#xaa;" 
 />
    <glyph glyph-name="guillemotleft" unicode="&#xab;" 
 />
    <glyph glyph-name="logicalnot" unicode="&#xac;" 
 />
    <glyph glyph-name="sfthyphen" unicode="&#xad;" 
 />
    <glyph glyph-name="registered" unicode="&#xae;" 
 />
    <glyph glyph-name="overstore" unicode="&#xaf;" 
 />
    <glyph glyph-name="glyph113" unicode="&#xb0;" 
 />
    <glyph glyph-name="plusminus" unicode="&#xb1;" 
 />
    <glyph glyph-name="twosuperior" unicode="&#xb2;" 
 />
    <glyph glyph-name="threesuperior" unicode="&#xb3;" 
 />
    <glyph glyph-name="acute" unicode="&#xb4;" 
 />
    <glyph glyph-name="mu" unicode="&#xb5;" 
 />
    <glyph glyph-name="paragraph" unicode="&#xb6;" 
 />
    <glyph glyph-name="middot" unicode="&#xb7;" 
 />
    <glyph glyph-name="cedilla" unicode="&#xb8;" 
 />
    <glyph glyph-name="onesuperior" unicode="&#xb9;" 
 />
    <glyph glyph-name="ordmasculine" unicode="&#xba;" 
 />
    <glyph glyph-name="guillemotright" unicode="&#xbb;" 
 />
    <glyph glyph-name="onequarter" unicode="&#xbc;" 
 />
    <glyph glyph-name="onehalf" unicode="&#xbd;" 
 />
    <glyph glyph-name="threequarters" unicode="&#xbe;" 
 />
    <glyph glyph-name="questiondown" unicode="&#xbf;" horiz-adv-x="611" 
d="M344 101l165 100q37 -36 54.5 -77t17.5 -89q0 -8 -0.5 -16.5t-1.5 -17.5q-11 -101 -89 -153t-196 -56q-112 -4 -202.5 66t-82.5 178q4 54 32.5 83.5t61.5 53.5q1 0 2 1l2 2q29 21 54 45t33 65q4 21 6 39.5t2 36.5v6.5v6.5q-1 19 -4 39t-9 42l250 25q2 -20 3.5 -39
t1.5 -37q0 -23 -2 -45.5t-7 -44.5q-6 -29 -16 -58t-25 -61q-12 -26 -33.5 -44t-44.5 -33l-12 -8l-12 -8q-27 -17 -46.5 -36.5t-19.5 -48.5q0 -5 1 -10.5t2 -10.5q6 -26 24.5 -44t45.5 -21h3t3 -1h2.5h2.5q30 0 54 17t25 49q0 32 -8 60.5t-37 43.5v0zM389 526
q-12 -12 -25.5 -19.5t-26.5 -11.5q-6 -1 -12.5 -2t-13.5 -1q-47 1 -83 37.5t-35 82.5q0 20 8.5 40t27.5 39q13 12 26 19.5t26 11.5q6 1 13 2t13 1q47 -1 83 -37t35 -83q0 -20 -8.5 -40t-27.5 -39v0z" />
    <glyph glyph-name="Agrave" unicode="&#xc0;" 
 />
    <glyph glyph-name="Aacute" unicode="&#xc1;" 
 />
    <glyph glyph-name="Acircumflex" unicode="&#xc2;" 
 />
    <glyph glyph-name="Atilde" unicode="&#xc3;" 
 />
    <glyph glyph-name="Adieresis" unicode="&#xc4;" 
 />
    <glyph glyph-name="Aring" unicode="&#xc5;" 
 />
    <glyph glyph-name="AE" unicode="&#xc6;" 
 />
    <glyph glyph-name="Ccedilla" unicode="&#xc7;" 
 />
    <glyph glyph-name="Egrave" unicode="&#xc8;" 
 />
    <glyph glyph-name="Eacute" unicode="&#xc9;" 
 />
    <glyph glyph-name="Ecircumflex" unicode="&#xca;" 
 />
    <glyph glyph-name="Edieresis" unicode="&#xcb;" 
 />
    <glyph glyph-name="Igrave" unicode="&#xcc;" 
 />
    <glyph glyph-name="Iacute" unicode="&#xcd;" 
 />
    <glyph glyph-name="Icircumflex" unicode="&#xce;" 
 />
    <glyph glyph-name="Idieresis" unicode="&#xcf;" 
 />
    <glyph glyph-name="Eth" unicode="&#xd0;" 
 />
    <glyph glyph-name="Ntilde" unicode="&#xd1;" horiz-adv-x="903" 
d="M47 773h365l190 -475v219l-74 128h319l-56 -133l15 -512h-304l-185 446l-5 -247l66 -199h-393l133 194l24 470l-95 109v0zM470 800h415l-35 -110h-350l-30 110v0z" />
    <glyph glyph-name="Ograve" unicode="&#xd2;" 
 />
    <glyph glyph-name="Oacute" unicode="&#xd3;" 
 />
    <glyph glyph-name="Ocircumflex" unicode="&#xd4;" 
 />
    <glyph glyph-name="Otilde" unicode="&#xd5;" 
 />
    <glyph glyph-name="Odieresis" unicode="&#xd6;" 
 />
    <glyph glyph-name="multiply" unicode="&#xd7;" 
 />
    <glyph glyph-name="Oslash" unicode="&#xd8;" 
 />
    <glyph glyph-name="Ugrave" unicode="&#xd9;" 
 />
    <glyph glyph-name="Uacute" unicode="&#xda;" 
 />
    <glyph glyph-name="Ucircumflex" unicode="&#xdb;" 
 />
    <glyph glyph-name="Udieresis" unicode="&#xdc;" 
 />
    <glyph glyph-name="Yacute" unicode="&#xdd;" 
 />
    <glyph glyph-name="Thorn" unicode="&#xde;" 
 />
    <glyph glyph-name="germandbls" unicode="&#xdf;" 
 />
    <glyph glyph-name="agrave" unicode="&#xe0;" 
 />
    <glyph glyph-name="aacute" unicode="&#xe1;" 
 />
    <glyph glyph-name="acircumflex" unicode="&#xe2;" 
 />
    <glyph glyph-name="atilde" unicode="&#xe3;" 
 />
    <glyph glyph-name="adieresis" unicode="&#xe4;" 
 />
    <glyph glyph-name="aring" unicode="&#xe5;" 
 />
    <glyph glyph-name="ae" unicode="&#xe6;" 
 />
    <glyph glyph-name="ccedilla" unicode="&#xe7;" 
 />
    <glyph glyph-name="egrave" unicode="&#xe8;" 
 />
    <glyph glyph-name="eacute" unicode="&#xe9;" 
 />
    <glyph glyph-name="ecircumflex" unicode="&#xea;" 
 />
    <glyph glyph-name="edieresis" unicode="&#xeb;" 
 />
    <glyph glyph-name="igrave" unicode="&#xec;" 
 />
    <glyph glyph-name="iacute" unicode="&#xed;" 
 />
    <glyph glyph-name="icircumflex" unicode="&#xee;" 
 />
    <glyph glyph-name="idieresis" unicode="&#xef;" 
 />
    <glyph glyph-name="eth" unicode="&#xf0;" 
 />
    <glyph glyph-name="ntilde" unicode="&#xf1;" horiz-adv-x="922" 
d="M595 320v170q0 12 -1.5 22t-5.5 20q-1 6 -3.5 11.5t-4.5 11.5q-6 14 -13 24.5t-16 19.5q-2 2 -3 3.5t-3 2.5h330l-5.5 -5.5l-4.5 -4.5q-10 -10 -17 -20.5t-13 -24.5q-2 -6 -4.5 -11.5t-3.5 -11.5q-4 -10 -5.5 -20t-1.5 -22v-380q0 -11 3 -20t8 -18q3 -4 6 -8.5t5 -9.5
q1 -1 1.5 -2t1.5 -2q5 -9 10 -16.5t11 -14.5q4 -3 7 -6.5t7 -7.5h-415q2 6 3.5 11t2.5 11q2 7 3 15.5t1 17.5q0 13 -2 23.5t-6 20.5q-2 6 -4 11.5t-4 11.5q-1 3 -2 6.5t-2 6.5l-121 365v-345v-3.5v-3.5v-21t2 -20q1 -8 3 -15.5t5 -16.5q11 -26 26 -43.5t39 -31.5h-405
q4 3 8 6.5t8 7.5q10 9 19 19.5t17 22.5q4 4 7 9l6 10q2 3 3.5 5.5t3.5 4.5q3 5 6 9t5 8q7 11 12 22.5t5 25.5v505q0 17 -4.5 31t-12.5 27q-3 6 -6 11t-7 11q-13 21 -28 34.5t-37 25.5h440q-1 -2 -2.5 -4.5t-2.5 -5.5q-2 -4 -3 -9t-2 -11v-12t1 -11q0 -4 1 -8t3 -9l151 -405
v0zM535 800h335v-135h-335v135v0z" />
    <glyph glyph-name="ograve" unicode="&#xf2;" 
 />
    <glyph glyph-name="oacute" unicode="&#xf3;" 
 />
    <glyph glyph-name="ocircumflex" unicode="&#xf4;" 
 />
    <glyph glyph-name="otilde" unicode="&#xf5;" 
 />
    <glyph glyph-name="odieresis" unicode="&#xf6;" 
 />
    <glyph glyph-name="divide" unicode="&#xf7;" 
 />
    <glyph glyph-name="oslash" unicode="&#xf8;" 
 />
    <glyph glyph-name="ugrave" unicode="&#xf9;" 
 />
    <glyph glyph-name="uacute" unicode="&#xfa;" 
 />
    <glyph glyph-name="ucircumflex" unicode="&#xfb;" 
 />
    <glyph glyph-name="udieresis" unicode="&#xfc;" 
 />
    <glyph glyph-name="yacute" unicode="&#xfd;" 
 />
    <glyph glyph-name="thorn" unicode="&#xfe;" 
 />
    <glyph glyph-name="ydieresis" unicode="&#xff;" 
 />
    <glyph glyph-name="Abreve" unicode="&#x102;" 
 />
    <glyph glyph-name="abreve" unicode="&#x103;" 
 />
    <glyph glyph-name="Aogonek" unicode="&#x104;" 
 />
    <glyph glyph-name="aogonek" unicode="&#x105;" 
 />
    <glyph glyph-name="Cacute" unicode="&#x106;" 
 />
    <glyph glyph-name="cacute" unicode="&#x107;" 
 />
    <glyph glyph-name="Ccaron" unicode="&#x10c;" 
 />
    <glyph glyph-name="ccaron" unicode="&#x10d;" 
 />
    <glyph glyph-name="Dcaron" unicode="&#x10e;" 
 />
    <glyph glyph-name="dcaron" unicode="&#x10f;" 
 />
    <glyph glyph-name="Dslash" unicode="&#x110;" 
 />
    <glyph glyph-name="dslash" unicode="&#x111;" 
 />
    <glyph glyph-name="Eogonek" unicode="&#x118;" 
 />
    <glyph glyph-name="eogonek" unicode="&#x119;" 
 />
    <glyph glyph-name="Ecaron" unicode="&#x11a;" 
 />
    <glyph glyph-name="ecaron" unicode="&#x11b;" 
 />
    <glyph glyph-name="Gbreve" unicode="&#x11e;" 
 />
    <glyph glyph-name="gbreve" unicode="&#x11f;" 
 />
    <glyph glyph-name="Idot" unicode="&#x130;" 
 />
    <glyph glyph-name="dotlessi" unicode="&#x131;" 
 />
    <glyph glyph-name="Lacute" unicode="&#x139;" 
 />
    <glyph glyph-name="lacute" unicode="&#x13a;" 
 />
    <glyph glyph-name="Lcaron" unicode="&#x13d;" 
 />
    <glyph glyph-name="lcaron" unicode="&#x13e;" 
 />
    <glyph glyph-name="Ldot" unicode="&#x13f;" 
 />
    <glyph glyph-name="ldot" unicode="&#x140;" 
 />
    <glyph glyph-name="Lslash" unicode="&#x141;" 
 />
    <glyph glyph-name="lslash" unicode="&#x142;" 
 />
    <glyph glyph-name="Nacute" unicode="&#x143;" 
 />
    <glyph glyph-name="nacute" unicode="&#x144;" 
 />
    <glyph glyph-name="Ncaron" unicode="&#x147;" 
 />
    <glyph glyph-name="ncaron" unicode="&#x148;" 
 />
    <glyph glyph-name="Odblacute" unicode="&#x150;" 
 />
    <glyph glyph-name="odblacute" unicode="&#x151;" 
 />
    <glyph glyph-name="OE" unicode="&#x152;" 
 />
    <glyph glyph-name="oe" unicode="&#x153;" 
 />
    <glyph glyph-name="Racute" unicode="&#x154;" 
 />
    <glyph glyph-name="racute" unicode="&#x155;" 
 />
    <glyph glyph-name="Rcaron" unicode="&#x158;" 
 />
    <glyph glyph-name="rcaron" unicode="&#x159;" 
 />
    <glyph glyph-name="Sacute" unicode="&#x15a;" 
 />
    <glyph glyph-name="sacute" unicode="&#x15b;" 
 />
    <glyph glyph-name="Scedilla" unicode="&#x15e;" 
 />
    <glyph glyph-name="scedilla" unicode="&#x15f;" 
 />
    <glyph glyph-name="Scaron" unicode="&#x160;" 
 />
    <glyph glyph-name="scaron" unicode="&#x161;" 
 />
    <glyph glyph-name="Tcedilla" unicode="&#x162;" 
 />
    <glyph glyph-name="tcedilla" unicode="&#x163;" 
 />
    <glyph glyph-name="Tcaron" unicode="&#x164;" 
 />
    <glyph glyph-name="tcaron" unicode="&#x165;" 
 />
    <glyph glyph-name="Uring" unicode="&#x16e;" 
 />
    <glyph glyph-name="uring" unicode="&#x16f;" 
 />
    <glyph glyph-name="udblacute" unicode="&#x170;" 
 />
    <glyph glyph-name="Udblacute" unicode="&#x171;" 
 />
    <glyph glyph-name="Ydieresis" unicode="&#x178;" 
 />
    <glyph glyph-name="Zacute" unicode="&#x179;" 
 />
    <glyph glyph-name="zacute" unicode="&#x17a;" 
 />
    <glyph glyph-name="Zdot" unicode="&#x17b;" 
 />
    <glyph glyph-name="zdot" unicode="&#x17c;" 
 />
    <glyph glyph-name="Zcaron" unicode="&#x17d;" 
 />
    <glyph glyph-name="zcaron" unicode="&#x17e;" 
 />
    <glyph glyph-name="florin" unicode="&#x192;" 
 />
    <glyph glyph-name="hungarumlaut" unicode="&#x2ba;" 
 />
    <glyph glyph-name="tilde" unicode="&#x2c6;" 
 />
    <glyph glyph-name="caron" unicode="&#x2c7;" 
 />
    <glyph glyph-name="macron" unicode="&#x2c9;" 
 />
    <glyph glyph-name="breve" unicode="&#x2d8;" 
 />
    <glyph glyph-name="dotaccent" unicode="&#x2d9;" 
 />
    <glyph glyph-name="ring" unicode="&#x2da;" 
 />
    <glyph glyph-name="ogonek" unicode="&#x2db;" 
 />
    <glyph glyph-name="circumflex" unicode="&#x2dc;" 
 />
    <glyph glyph-name="Gamma" unicode="&#x393;" 
 />
    <glyph glyph-name="Theta" unicode="&#x398;" 
 />
    <glyph glyph-name="summation" unicode="&#x3a3;" 
 />
    <glyph glyph-name="Phi" unicode="&#x3a6;" 
 />
    <glyph glyph-name="Omega" unicode="&#x3a9;" 
 />
    <glyph glyph-name="alpha" unicode="&#x3b1;" 
 />
    <glyph glyph-name="delta" unicode="&#x3b4;" 
 />
    <glyph glyph-name="epsilon" unicode="&#x3b5;" 
 />
    <glyph glyph-name="pi" unicode="&#x3c0;" 
 />
    <glyph glyph-name="sigma" unicode="&#x3c3;" 
 />
    <glyph glyph-name="tau" unicode="&#x3c4;" 
 />
    <glyph glyph-name="phi" unicode="&#x3c6;" 
 />
    <glyph glyph-name="glyph276" unicode="&#x2013;" 
 />
    <glyph glyph-name="emdash" unicode="&#x2014;" 
 />
    <glyph glyph-name="underscoredbl" unicode="&#x2017;" 
 />
    <glyph glyph-name="quoteleft" unicode="&#x2018;" 
 />
    <glyph glyph-name="quoteright" unicode="&#x2019;" 
 />
    <glyph glyph-name="quotesinglbase" unicode="&#x201a;" 
 />
    <glyph glyph-name="quotedblleft" unicode="&#x201c;" 
 />
    <glyph glyph-name="quotedblright" unicode="&#x201d;" 
 />
    <glyph glyph-name="quotedblbase" unicode="&#x201e;" 
 />
    <glyph glyph-name="dagger" unicode="&#x2020;" 
 />
    <glyph glyph-name="daggerdbl" unicode="&#x2021;" 
 />
    <glyph glyph-name="glyph287" unicode="&#x2022;" 
 />
    <glyph glyph-name="ellipsis" unicode="&#x2026;" 
 />
    <glyph glyph-name="perthousand" unicode="&#x2030;" 
 />
    <glyph glyph-name="guilsinglleft" unicode="&#x2039;" 
 />
    <glyph glyph-name="guilsinglright" unicode="&#x203a;" 
 />
    <glyph glyph-name="exclamdbl" unicode="&#x203c;" 
 />
    <glyph glyph-name="nsuperior" unicode="&#x207f;" 
 />
    <glyph glyph-name="franc" unicode="&#x20a3;" 
 />
    <glyph glyph-name="peseta" unicode="&#x20a7;" 
 />
    <glyph glyph-name="trademark" unicode="&#x2122;" 
 />
    <glyph glyph-name="arrowleft" unicode="&#x2190;" 
 />
    <glyph glyph-name="arrowup" unicode="&#x2191;" 
 />
    <glyph glyph-name="arrowright" unicode="&#x2192;" 
 />
    <glyph glyph-name="arrowdown" unicode="&#x2193;" 
 />
    <glyph glyph-name="arrowboth" unicode="&#x2194;" 
 />
    <glyph glyph-name="arrowupdn" unicode="&#x2195;" 
 />
    <glyph glyph-name="arrowupdnbase" unicode="&#x21a8;" 
 />
    <glyph glyph-name="partialdiff" unicode="&#x2202;" 
 />
    <glyph glyph-name="Delta" unicode="&#x2206;" 
 />
    <glyph glyph-name="product" unicode="&#x220f;" 
 />
    <glyph glyph-name="minus" unicode="&#x2212;" 
 />
    <glyph glyph-name="fraction" unicode="&#x2215;" 
 />
    <glyph glyph-name="periodcentered" unicode="&#x2219;" 
 />
    <glyph glyph-name="radical" unicode="&#x221a;" 
 />
    <glyph glyph-name="infinity" unicode="&#x221e;" 
 />
    <glyph glyph-name="orthogonal" unicode="&#x221f;" 
 />
    <glyph glyph-name="intersection" unicode="&#x2229;" 
 />
    <glyph glyph-name="integral" unicode="&#x222b;" 
 />
    <glyph glyph-name="approxequal" unicode="&#x2248;" 
 />
    <glyph glyph-name="notequal" unicode="&#x2260;" 
 />
    <glyph glyph-name="equivalence" unicode="&#x2261;" 
 />
    <glyph glyph-name="lessequal" unicode="&#x2264;" 
 />
    <glyph glyph-name="greaterequal" unicode="&#x2265;" 
 />
    <glyph glyph-name="house" unicode="&#x2302;" 
 />
    <glyph glyph-name="revlogicalnot" unicode="&#x2310;" 
 />
    <glyph glyph-name="integraltp" unicode="&#x2320;" 
 />
    <glyph glyph-name="integralbt" unicode="&#x2321;" 
 />
    <glyph glyph-name="2500" unicode="&#x2500;" 
 />
    <glyph glyph-name="2502" unicode="&#x2502;" 
 />
    <glyph glyph-name="250c" unicode="&#x250c;" 
 />
    <glyph glyph-name="2510" unicode="&#x2510;" 
 />
    <glyph glyph-name="2514" unicode="&#x2514;" 
 />
    <glyph glyph-name="2518" unicode="&#x2518;" 
 />
    <glyph glyph-name="251c" unicode="&#x251c;" 
 />
    <glyph glyph-name="2524" unicode="&#x2524;" 
 />
    <glyph glyph-name="252c" unicode="&#x252c;" 
 />
    <glyph glyph-name="2534" unicode="&#x2534;" 
 />
    <glyph glyph-name="253c" unicode="&#x253c;" 
 />
    <glyph glyph-name="2550" unicode="&#x2550;" 
 />
    <glyph glyph-name="2551" unicode="&#x2551;" 
 />
    <glyph glyph-name="2552" unicode="&#x2552;" 
 />
    <glyph glyph-name="2553" unicode="&#x2553;" 
 />
    <glyph glyph-name="2554" unicode="&#x2554;" 
 />
    <glyph glyph-name="2555" unicode="&#x2555;" 
 />
    <glyph glyph-name="2556" unicode="&#x2556;" 
 />
    <glyph glyph-name="2557" unicode="&#x2557;" 
 />
    <glyph glyph-name="2558" unicode="&#x2558;" 
 />
    <glyph glyph-name="2559" unicode="&#x2559;" 
 />
    <glyph glyph-name="255a" unicode="&#x255a;" 
 />
    <glyph glyph-name="255b" unicode="&#x255b;" 
 />
    <glyph glyph-name="255c" unicode="&#x255c;" 
 />
    <glyph glyph-name="255d" unicode="&#x255d;" 
 />
    <glyph glyph-name="255e" unicode="&#x255e;" 
 />
    <glyph glyph-name="255f" unicode="&#x255f;" 
 />
    <glyph glyph-name="2560" unicode="&#x2560;" 
 />
    <glyph glyph-name="2561" unicode="&#x2561;" 
 />
    <glyph glyph-name="2562" unicode="&#x2562;" 
 />
    <glyph glyph-name="2563" unicode="&#x2563;" 
 />
    <glyph glyph-name="2564" unicode="&#x2564;" 
 />
    <glyph glyph-name="2565" unicode="&#x2565;" 
 />
    <glyph glyph-name="2566" unicode="&#x2566;" 
 />
    <glyph glyph-name="2567" unicode="&#x2567;" 
 />
    <glyph glyph-name="2568" unicode="&#x2568;" 
 />
    <glyph glyph-name="2569" unicode="&#x2569;" 
 />
    <glyph glyph-name="256a" unicode="&#x256a;" 
 />
    <glyph glyph-name="256b" unicode="&#x256b;" 
 />
    <glyph glyph-name="256c" unicode="&#x256c;" 
 />
    <glyph glyph-name="upblock" unicode="&#x2580;" 
 />
    <glyph glyph-name="dnblock" unicode="&#x2584;" 
 />
    <glyph glyph-name="block" unicode="&#x2588;" 
 />
    <glyph glyph-name="lfblock" unicode="&#x258c;" 
 />
    <glyph glyph-name="rtblock" unicode="&#x2590;" 
 />
    <glyph glyph-name="ltshade" unicode="&#x2591;" 
 />
    <glyph glyph-name="shade" unicode="&#x2592;" 
 />
    <glyph glyph-name="dkshade" unicode="&#x2593;" 
 />
    <glyph glyph-name="filledbox" unicode="&#x25a0;" 
 />
    <glyph glyph-name="filledrect" unicode="&#x25ac;" 
 />
    <glyph glyph-name="triagup" unicode="&#x25b2;" 
 />
    <glyph glyph-name="triagrt" unicode="&#x25ba;" 
 />
    <glyph glyph-name="triagdn" unicode="&#x25bc;" 
 />
    <glyph glyph-name="triaglf" unicode="&#x25c4;" 
 />
    <glyph glyph-name="lozenge" unicode="&#x25ca;" 
 />
    <glyph glyph-name="circle" unicode="&#x25cb;" 
 />
    <glyph glyph-name="invbullet" unicode="&#x25d8;" 
 />
    <glyph glyph-name="invcircle" unicode="&#x25d9;" 
 />
    <glyph glyph-name="smileface" unicode="&#x263a;" 
 />
    <glyph glyph-name="invsmileface" unicode="&#x263b;" 
 />
    <glyph glyph-name="sun" unicode="&#x263c;" 
 />
    <glyph glyph-name="female" unicode="&#x2640;" 
 />
    <glyph glyph-name="male" unicode="&#x2642;" 
 />
    <glyph glyph-name="spade" unicode="&#x2660;" 
 />
    <glyph glyph-name="club" unicode="&#x2663;" 
 />
    <glyph glyph-name="heart" unicode="&#x2665;" 
 />
    <glyph glyph-name="diamond" unicode="&#x2666;" 
 />
    <glyph glyph-name="musicalnote" unicode="&#x266a;" 
 />
    <glyph glyph-name="musicalnotedbl" unicode="&#x266b;" 
 />
    <glyph glyph-name="apple" unicode="&#xf000;" 
 />
    <glyph glyph-name="fi" unicode="&#xf001;" 
 />
    <glyph glyph-name="fl" unicode="&#xf002;" 
 />
    <glyph glyph-name="degree" 
 />
    <glyph glyph-name="bullet" 
 />
    <glyph glyph-name="endash" 
 />
  </font>
</defs>
</svg>
